<svg width="658" height="183" viewBox="0 0 658 183" fill="none" xmlns="http://www.w3.org/2000/svg">
<path d="M6.75439 40.5396L1 28V150H657V34.296L651.246 40.3914C645.491 46.4868 633.982 58.6776 622.474 60.8564C610.965 63.0353 599.456 55.2021 587.947 51.5228C576.439 47.8435 564.93 48.3179 553.421 45.131C541.912 41.944 530.404 35.0956 518.895 32.5628C507.386 30.0301 495.877 31.8131 484.368 39.4262C472.86 47.0393 461.351 60.4825 449.842 57.4437C438.333 54.4048 426.825 34.8839 415.316 31.8008C403.807 28.7176 392.298 42.0722 380.789 43.5996C369.281 45.127 357.772 34.8272 346.263 38.2724C334.754 41.7176 323.246 58.9079 311.737 70.0287C300.228 81.1494 288.719 86.2005 277.211 86.7745C265.702 87.3485 254.193 83.4453 242.684 77.2995C231.175 71.1537 219.667 62.7653 208.158 65.7345C196.649 68.7038 185.14 83.0306 173.632 80.7179C162.123 78.4053 150.614 59.4532 139.105 46.1945C127.596 32.9357 116.088 25.3703 104.579 29.7729C93.0702 34.1755 81.5614 50.546 70.0526 64.7847C58.5439 79.0234 47.0351 91.1304 35.5263 84.6443C24.0175 78.1582 12.5088 53.0791 6.75439 40.5396Z" fill="url(#paint0_linear_412_242)" fill-opacity="0.5"/>
<path opacity="0.5" d="M1 95.1C1 95.1 20.9521 78.0137 35.4627 76.4588C49.9733 74.9039 49.9733 81.1059 65.6931 81.1059C81.4129 81.1059 74.1576 60.3739 98.9465 60.3739C123.735 60.3739 137.037 80.5876 153.361 81.1059C169.686 81.6242 186.01 42.2335 210.799 43.2701C235.588 44.3068 219.693 62.273 257.354 60.3739C288.128 58.822 274.888 75.9231 308.141 75.9231C334.333 75.9231 341.076 85.7018 362.556 89.9172C391.526 95.6025 408.831 80.7924 431.481 75.9231C472.776 67.0456 461.305 82.7226 496.174 77.9963C527.093 73.8053 510.08 58.3008 559.658 58.3008C592.161 58.3008 599.802 82.0896 632.211 81.1061C646.29 80.6788 657 86.3195 657 86.3195" stroke="#656575" stroke-width="1.5" stroke-linecap="round" stroke-dasharray="4 4"/>
<path d="M1 28L6.75439 40.5957C12.5088 53.1914 24.0175 78.3828 35.5263 84.898C47.0351 91.4131 58.5439 79.2519 70.0526 64.9494C81.5614 50.647 93.0702 34.2031 104.579 29.7809C116.088 25.3586 127.596 32.9578 139.105 46.2759C150.614 59.5941 162.123 78.631 173.632 80.954C185.14 83.277 196.649 68.886 208.158 65.9035C219.667 62.921 231.175 71.347 242.684 77.5203C254.193 83.6936 265.702 87.6143 277.211 87.0377C288.719 86.4612 300.228 81.3874 311.737 70.2169C323.246 59.0464 334.754 41.7791 346.263 38.3184C357.772 34.8577 369.281 45.2037 380.789 43.6695C392.298 42.1352 403.807 28.7208 415.316 31.8178C426.825 34.9148 438.333 54.5231 449.842 57.5755C461.351 60.628 472.86 47.1245 484.368 39.4774C495.877 31.8302 507.386 30.0392 518.895 32.5833C530.403 35.1273 541.912 42.0064 553.421 45.2077C564.93 48.4089 576.439 47.9323 587.947 51.6281C599.456 55.3239 610.965 63.1922 622.474 61.0036C633.982 58.815 645.491 46.5696 651.246 40.4469L657 34.3242" stroke="#006AFF" stroke-opacity="0.8" stroke-width="1.5" stroke-linecap="round"/>
<rect opacity="0.15" x="38.5" width="1" height="150" rx="0.5" fill="#656575"/>
<path d="M26.3013 168.818H27.7729L31.2331 177.27H31.3525L34.8127 168.818H36.2843V179H35.1309V171.264H35.0314L31.8496 179H30.736L27.5542 171.264H27.4547V179H26.3013V168.818ZM40.8445 179.179C40.3606 179.179 39.9214 179.088 39.527 178.906C39.1326 178.72 38.8194 178.453 38.5874 178.105C38.3554 177.754 38.2393 177.33 38.2393 176.832C38.2393 176.395 38.3255 176.04 38.4979 175.768C38.6702 175.493 38.9006 175.278 39.1889 175.122C39.4773 174.966 39.7955 174.85 40.1435 174.774C40.4948 174.695 40.8478 174.632 41.2024 174.585C41.6664 174.526 42.0426 174.481 42.331 174.451C42.6226 174.418 42.8348 174.363 42.9673 174.287C43.1032 174.211 43.1712 174.078 43.1712 173.889V173.849C43.1712 173.359 43.0369 172.978 42.7685 172.706C42.5033 172.434 42.1006 172.298 41.5604 172.298C41.0002 172.298 40.5611 172.421 40.2429 172.666C39.9247 172.911 39.701 173.173 39.5717 173.452L38.4581 173.054C38.657 172.59 38.9221 172.229 39.2536 171.97C39.5883 171.708 39.9529 171.526 40.3473 171.423C40.745 171.317 41.1361 171.264 41.5206 171.264C41.7659 171.264 42.0476 171.294 42.3658 171.354C42.6873 171.41 42.9972 171.528 43.2955 171.707C43.5971 171.886 43.8473 172.156 44.0462 172.517C44.245 172.878 44.3445 173.362 44.3445 173.969V179H43.1712V177.966H43.1115C43.032 178.132 42.8994 178.309 42.7138 178.498C42.5282 178.687 42.2813 178.848 41.973 178.98C41.6648 179.113 41.2886 179.179 40.8445 179.179ZM41.0234 178.125C41.4875 178.125 41.8786 178.034 42.1967 177.852C42.5182 177.669 42.7602 177.434 42.9226 177.146C43.0883 176.857 43.1712 176.554 43.1712 176.236V175.162C43.1214 175.222 43.0121 175.276 42.843 175.326C42.6773 175.372 42.4851 175.414 42.2663 175.45C42.0509 175.483 41.8404 175.513 41.6349 175.54C41.4328 175.563 41.2687 175.583 41.1428 175.599C40.8378 175.639 40.5528 175.704 40.2876 175.793C40.0258 175.879 39.8137 176.01 39.6513 176.186C39.4922 176.358 39.4126 176.594 39.4126 176.892C39.4126 177.3 39.5634 177.608 39.8651 177.817C40.17 178.022 40.5561 178.125 41.0234 178.125ZM46.9682 181.864C46.7694 181.864 46.592 181.847 46.4363 181.814C46.2805 181.784 46.1728 181.754 46.1131 181.724L46.4114 180.69C46.6964 180.763 46.9483 180.79 47.1671 180.77C47.3858 180.75 47.5797 180.652 47.7488 180.477C47.9211 180.304 48.0785 180.024 48.2211 179.636L48.4398 179.04L45.6159 171.364H46.8887L48.9966 177.449H49.0762L51.1841 171.364H52.4569L49.2154 180.114C49.0695 180.508 48.8889 180.835 48.6735 181.093C48.458 181.355 48.2078 181.549 47.9228 181.675C47.641 181.801 47.3229 181.864 46.9682 181.864Z" fill="#525256"/>
<rect opacity="0.15" x="154.5" width="1" height="150" rx="0.5" fill="#656575"/>
<path d="M148.168 168.818H149.401V176.097C149.401 176.746 149.281 177.298 149.043 177.752C148.804 178.206 148.468 178.551 148.034 178.786C147.599 179.022 147.087 179.139 146.497 179.139C145.941 179.139 145.445 179.038 145.011 178.836C144.577 178.63 144.235 178.339 143.987 177.961C143.738 177.583 143.614 177.134 143.614 176.614H144.827C144.827 176.902 144.898 177.154 145.041 177.369C145.186 177.581 145.385 177.747 145.637 177.866C145.889 177.986 146.176 178.045 146.497 178.045C146.852 178.045 147.154 177.971 147.402 177.822C147.651 177.673 147.84 177.454 147.969 177.165C148.102 176.874 148.168 176.518 148.168 176.097V168.818ZM156.525 175.878V171.364H157.698V179H156.525V177.707H156.445C156.267 178.095 155.988 178.425 155.61 178.697C155.232 178.965 154.755 179.099 154.178 179.099C153.701 179.099 153.277 178.995 152.906 178.786C152.535 178.574 152.243 178.256 152.031 177.832C151.819 177.404 151.713 176.866 151.713 176.216V171.364H152.886V176.136C152.886 176.693 153.042 177.137 153.353 177.469C153.668 177.8 154.069 177.966 154.556 177.966C154.848 177.966 155.145 177.891 155.446 177.742C155.751 177.593 156.006 177.364 156.212 177.056C156.421 176.748 156.525 176.355 156.525 175.878ZM161.021 174.406V179H159.847V171.364H160.981V172.557H161.08C161.259 172.169 161.531 171.857 161.896 171.622C162.26 171.384 162.731 171.264 163.308 171.264C163.825 171.264 164.277 171.37 164.665 171.582C165.053 171.791 165.354 172.109 165.57 172.537C165.785 172.961 165.893 173.498 165.893 174.148V179H164.719V174.227C164.719 173.627 164.564 173.16 164.252 172.825C163.941 172.487 163.513 172.318 162.969 172.318C162.595 172.318 162.26 172.399 161.965 172.562C161.674 172.724 161.443 172.961 161.274 173.273C161.105 173.584 161.021 173.962 161.021 174.406Z" fill="#525256"/>
<rect opacity="0.15" x="270.5" width="1" height="150" rx="0.5" fill="#656575"/>
<path d="M266.601 168.818H267.834V176.097C267.834 176.746 267.715 177.298 267.476 177.752C267.238 178.206 266.901 178.551 266.467 178.786C266.033 179.022 265.521 179.139 264.931 179.139C264.374 179.139 263.879 179.038 263.444 178.836C263.01 178.63 262.669 178.339 262.42 177.961C262.172 177.583 262.047 177.134 262.047 176.614H263.26C263.26 176.902 263.332 177.154 263.474 177.369C263.62 177.581 263.819 177.747 264.071 177.866C264.323 177.986 264.609 178.045 264.931 178.045C265.286 178.045 265.587 177.971 265.836 177.822C266.084 177.673 266.273 177.454 266.403 177.165C266.535 176.874 266.601 176.518 266.601 176.097V168.818ZM274.959 175.878V171.364H276.132V179H274.959V177.707H274.879C274.7 178.095 274.422 178.425 274.044 178.697C273.666 178.965 273.189 179.099 272.612 179.099C272.135 179.099 271.711 178.995 271.339 178.786C270.968 178.574 270.676 178.256 270.464 177.832C270.252 177.404 270.146 176.866 270.146 176.216V171.364H271.319V176.136C271.319 176.693 271.475 177.137 271.787 177.469C272.102 177.8 272.503 177.966 272.99 177.966C273.282 177.966 273.578 177.891 273.88 177.742C274.185 177.593 274.44 177.364 274.645 177.056C274.854 176.748 274.959 176.355 274.959 175.878ZM279.454 168.818V179H278.281V168.818H279.454Z" fill="#525256"/>
<rect opacity="0.15" x="386.5" width="1" height="150" rx="0.5" fill="#656575"/>
<path d="M375.587 179H374.294L378.033 168.818H379.306L383.044 179H381.752L378.709 170.429H378.63L375.587 179ZM376.064 175.023H381.275V176.116H376.064V175.023ZM389.284 175.878V171.364H390.457V179H389.284V177.707H389.204C389.025 178.095 388.747 178.425 388.369 178.697C387.991 178.965 387.514 179.099 386.937 179.099C386.46 179.099 386.036 178.995 385.665 178.786C385.293 178.574 385.002 178.256 384.79 177.832C384.577 177.404 384.471 176.866 384.471 176.216V171.364H385.645V176.136C385.645 176.693 385.8 177.137 386.112 177.469C386.427 177.8 386.828 177.966 387.315 177.966C387.607 177.966 387.903 177.891 388.205 177.742C388.51 177.593 388.765 177.364 388.971 177.056C389.179 176.748 389.284 176.355 389.284 175.878ZM395.688 182.023C395.122 182.023 394.634 181.95 394.227 181.804C393.819 181.661 393.479 181.473 393.208 181.237C392.939 181.005 392.725 180.757 392.566 180.491L393.501 179.835C393.607 179.974 393.741 180.134 393.904 180.312C394.066 180.495 394.288 180.652 394.57 180.785C394.855 180.921 395.228 180.989 395.688 180.989C396.305 180.989 396.814 180.839 397.215 180.541C397.616 180.243 397.816 179.776 397.816 179.139V177.588H397.717C397.631 177.727 397.508 177.9 397.349 178.105C397.193 178.307 396.968 178.488 396.673 178.647C396.381 178.803 395.987 178.881 395.49 178.881C394.873 178.881 394.32 178.735 393.829 178.443C393.342 178.152 392.956 177.727 392.671 177.17C392.389 176.614 392.248 175.937 392.248 175.142C392.248 174.36 392.386 173.679 392.661 173.099C392.936 172.515 393.319 172.065 393.809 171.746C394.3 171.425 394.867 171.264 395.509 171.264C396.007 171.264 396.401 171.347 396.693 171.513C396.988 171.675 397.213 171.861 397.369 172.07C397.528 172.275 397.651 172.444 397.737 172.577H397.856V171.364H398.99V179.219C398.99 179.875 398.84 180.409 398.542 180.82C398.247 181.234 397.849 181.537 397.349 181.729C396.852 181.925 396.298 182.023 395.688 182.023ZM395.649 177.827C396.119 177.827 396.517 177.719 396.842 177.504C397.167 177.288 397.414 176.978 397.583 176.574C397.752 176.17 397.836 175.686 397.836 175.122C397.836 174.572 397.753 174.086 397.588 173.665C397.422 173.245 397.177 172.915 396.852 172.676C396.527 172.437 396.126 172.318 395.649 172.318C395.152 172.318 394.737 172.444 394.406 172.696C394.078 172.948 393.831 173.286 393.665 173.71C393.503 174.134 393.421 174.605 393.421 175.122C393.421 175.652 393.504 176.121 393.67 176.529C393.839 176.933 394.088 177.252 394.416 177.484C394.747 177.712 395.158 177.827 395.649 177.827Z" fill="#525256"/>
<rect opacity="0.15" x="502.5" width="1" height="150" rx="0.5" fill="#656575"/>
<path d="M496.997 171.364C496.938 170.86 496.696 170.469 496.272 170.19C495.847 169.912 495.327 169.773 494.71 169.773C494.26 169.773 493.865 169.846 493.527 169.991C493.193 170.137 492.931 170.338 492.742 170.593C492.556 170.848 492.463 171.138 492.463 171.463C492.463 171.735 492.528 171.969 492.657 172.164C492.79 172.356 492.959 172.517 493.164 172.646C493.37 172.772 493.585 172.877 493.811 172.96C494.036 173.039 494.243 173.104 494.432 173.153L495.466 173.432C495.731 173.501 496.026 173.598 496.351 173.72C496.679 173.843 496.992 174.01 497.291 174.222C497.592 174.431 497.841 174.7 498.036 175.028C498.232 175.356 498.33 175.759 498.33 176.236C498.33 176.786 498.186 177.283 497.897 177.727C497.612 178.171 497.195 178.524 496.644 178.786C496.098 179.048 495.433 179.179 494.651 179.179C493.922 179.179 493.29 179.061 492.757 178.826C492.226 178.591 491.809 178.263 491.504 177.842C491.202 177.421 491.032 176.932 490.992 176.375H492.264C492.298 176.759 492.427 177.078 492.652 177.33C492.881 177.578 493.169 177.764 493.517 177.886C493.869 178.006 494.246 178.065 494.651 178.065C495.121 178.065 495.544 177.989 495.919 177.837C496.293 177.681 496.59 177.465 496.809 177.19C497.027 176.912 497.137 176.587 497.137 176.216C497.137 175.878 497.042 175.603 496.853 175.391C496.664 175.179 496.416 175.006 496.108 174.874C495.799 174.741 495.466 174.625 495.108 174.526L493.855 174.168C493.06 173.939 492.43 173.612 491.966 173.188C491.502 172.764 491.27 172.209 491.27 171.523C491.27 170.953 491.424 170.455 491.733 170.031C492.044 169.604 492.462 169.272 492.985 169.037C493.512 168.798 494.101 168.679 494.75 168.679C495.407 168.679 495.99 168.797 496.5 169.032C497.011 169.264 497.415 169.582 497.713 169.987C498.015 170.391 498.174 170.85 498.191 171.364H496.997ZM503.4 179.159C502.664 179.159 502.029 178.997 501.495 178.672C500.965 178.344 500.556 177.886 500.267 177.3C499.982 176.71 499.84 176.024 499.84 175.241C499.84 174.459 499.982 173.77 500.267 173.173C500.556 172.573 500.957 172.106 501.471 171.771C501.988 171.433 502.591 171.264 503.28 171.264C503.678 171.264 504.071 171.33 504.459 171.463C504.846 171.596 505.199 171.811 505.517 172.109C505.836 172.404 506.089 172.795 506.278 173.283C506.467 173.77 506.562 174.37 506.562 175.082V175.58H500.675V174.565H505.368C505.368 174.134 505.282 173.75 505.11 173.412C504.941 173.074 504.699 172.807 504.384 172.612C504.072 172.416 503.705 172.318 503.28 172.318C502.813 172.318 502.409 172.434 502.067 172.666C501.729 172.895 501.469 173.193 501.287 173.561C501.104 173.929 501.013 174.323 501.013 174.744V175.42C501.013 175.997 501.113 176.486 501.312 176.887C501.514 177.285 501.794 177.588 502.152 177.797C502.51 178.002 502.926 178.105 503.4 178.105C503.708 178.105 503.986 178.062 504.235 177.976C504.487 177.886 504.704 177.754 504.886 177.578C505.068 177.399 505.209 177.177 505.309 176.912L506.442 177.23C506.323 177.615 506.122 177.953 505.841 178.244C505.559 178.533 505.211 178.758 504.797 178.92C504.382 179.08 503.917 179.159 503.4 179.159ZM508.346 181.864V171.364H509.48V172.577H509.619C509.705 172.444 509.825 172.275 509.977 172.07C510.133 171.861 510.355 171.675 510.643 171.513C510.935 171.347 511.329 171.264 511.826 171.264C512.469 171.264 513.036 171.425 513.527 171.746C514.017 172.068 514.4 172.524 514.675 173.114C514.95 173.704 515.088 174.4 515.088 175.202C515.088 176.01 514.95 176.711 514.675 177.305C514.4 177.895 514.019 178.352 513.532 178.677C513.044 178.998 512.483 179.159 511.846 179.159C511.356 179.159 510.963 179.078 510.668 178.915C510.373 178.75 510.146 178.562 509.987 178.354C509.828 178.142 509.705 177.966 509.619 177.827H509.52V181.864H508.346ZM509.5 175.182C509.5 175.759 509.584 176.267 509.753 176.708C509.922 177.146 510.169 177.489 510.494 177.737C510.819 177.982 511.217 178.105 511.687 178.105C512.178 178.105 512.587 177.976 512.915 177.717C513.247 177.455 513.495 177.104 513.661 176.663C513.83 176.219 513.915 175.725 513.915 175.182C513.915 174.645 513.832 174.161 513.666 173.73C513.504 173.296 513.257 172.953 512.925 172.701C512.597 172.446 512.184 172.318 511.687 172.318C511.21 172.318 510.809 172.439 510.484 172.681C510.159 172.92 509.914 173.254 509.748 173.685C509.583 174.113 509.5 174.612 509.5 175.182Z" fill="#525256"/>
<rect opacity="0.15" x="618.5" width="1" height="150" rx="0.5" fill="#656575"/>
<path d="M617.039 173.909C617.039 174.983 616.845 175.911 616.457 176.693C616.069 177.475 615.537 178.079 614.861 178.503C614.185 178.927 613.413 179.139 612.544 179.139C611.676 179.139 610.904 178.927 610.228 178.503C609.551 178.079 609.02 177.475 608.632 176.693C608.244 175.911 608.05 174.983 608.05 173.909C608.05 172.835 608.244 171.907 608.632 171.125C609.02 170.343 609.551 169.74 610.228 169.315C610.904 168.891 611.676 168.679 612.544 168.679C613.413 168.679 614.185 168.891 614.861 169.315C615.537 169.74 616.069 170.343 616.457 171.125C616.845 171.907 617.039 172.835 617.039 173.909ZM615.846 173.909C615.846 173.027 615.698 172.283 615.403 171.677C615.111 171.07 614.715 170.611 614.215 170.3C613.718 169.988 613.161 169.832 612.544 169.832C611.928 169.832 611.369 169.988 610.869 170.3C610.372 170.611 609.976 171.07 609.681 171.677C609.389 172.283 609.243 173.027 609.243 173.909C609.243 174.791 609.389 175.535 609.681 176.141C609.976 176.748 610.372 177.207 610.869 177.518C611.369 177.83 611.928 177.986 612.544 177.986C613.161 177.986 613.718 177.83 614.215 177.518C614.715 177.207 615.111 176.748 615.403 176.141C615.698 175.535 615.846 174.791 615.846 173.909ZM622.055 179.159C621.339 179.159 620.723 178.99 620.206 178.652C619.689 178.314 619.291 177.848 619.012 177.255C618.734 176.662 618.595 175.984 618.595 175.222C618.595 174.446 618.737 173.762 619.022 173.168C619.311 172.572 619.712 172.106 620.225 171.771C620.743 171.433 621.346 171.264 622.035 171.264C622.572 171.264 623.056 171.364 623.487 171.562C623.918 171.761 624.271 172.04 624.546 172.398C624.821 172.756 624.992 173.173 625.058 173.651H623.885C623.795 173.303 623.596 172.994 623.288 172.726C622.983 172.454 622.572 172.318 622.055 172.318C621.598 172.318 621.197 172.437 620.852 172.676C620.511 172.911 620.244 173.245 620.051 173.675C619.863 174.103 619.768 174.605 619.768 175.182C619.768 175.772 619.861 176.286 620.047 176.723C620.235 177.161 620.501 177.5 620.842 177.742C621.187 177.984 621.591 178.105 622.055 178.105C622.36 178.105 622.637 178.052 622.885 177.946C623.134 177.84 623.344 177.688 623.517 177.489C623.689 177.29 623.812 177.051 623.885 176.773H625.058C624.992 177.223 624.828 177.629 624.566 177.991C624.307 178.349 623.964 178.634 623.537 178.846C623.112 179.055 622.618 179.159 622.055 179.159ZM630.094 171.364V172.358H626.137V171.364H630.094ZM627.29 169.534H628.463V176.812C628.463 177.144 628.511 177.393 628.608 177.558C628.707 177.721 628.833 177.83 628.985 177.886C629.141 177.939 629.305 177.966 629.478 177.966C629.607 177.966 629.713 177.959 629.796 177.946C629.879 177.929 629.945 177.916 629.995 177.906L630.233 178.96C630.154 178.99 630.043 179.02 629.9 179.05C629.758 179.083 629.577 179.099 629.358 179.099C629.027 179.099 628.702 179.028 628.384 178.886C628.069 178.743 627.807 178.526 627.598 178.234C627.393 177.943 627.29 177.575 627.29 177.131V169.534Z" fill="#525256"/>
<defs>
<linearGradient id="paint0_linear_412_242" x1="329" y1="-0.466665" x2="329" y2="161.183" gradientUnits="userSpaceOnUse">
<stop stop-color="#006AFF"/>
<stop offset="1" stop-color="#D9D9D9" stop-opacity="0"/>
</linearGradient>
</defs>
</svg>
